<?xml version="1.0" encoding="UTF-8" standalone="no"?><svg xmlns="http://www.w3.org/2000/svg" xmlns:xlink="http://www.w3.org/1999/xlink" contentScriptType="application/ecmascript" contentStyleType="text/css" height="352px" preserveAspectRatio="none" style="width:1152px;height:352px;background:#FFFFFF;" version="1.1" viewBox="0 0 1152 352" width="1152px" zoomAndPan="magnify"><defs><filter height="300%" id="f1fsesyofwuv7k" width="300%" x="-1" y="-1"><feGaussianBlur result="blurOut" stdDeviation="2.0"/><feColorMatrix in="blurOut" result="blurOut2" type="matrix" values="0 0 0 0 0 0 0 0 0 0 0 0 0 0 0 0 0 0 .4 0"/><feOffset dx="4.0" dy="4.0" in="blurOut2" result="blurOut3"/><feBlend in="SourceGraphic" in2="blurOut3" mode="normal"/></filter></defs><g><!--MD5=[3ff016c1aa5003d713567a073e2181a6]
cluster application--><polygon fill="#FFFFFF" filter="url(#f1fsesyofwuv7k)" points="16,6,102,6,109,28.4883,821,28.4883,821,345,16,345,16,6" style="stroke:#000000;stroke-width:1.5;"/><line style="stroke:#000000;stroke-width:1.5;" x1="16" x2="109" y1="28.4883" y2="28.4883"/><text fill="#000000" font-family="sans-serif" font-size="14" font-weight="bold" lengthAdjust="spacing" textLength="80" x="20" y="21.5352">application</text><!--MD5=[5d4cd377749310b66bf14896f5cd8d9b]
cluster model--><polygon fill="#FFFFFF" filter="url(#f1fsesyofwuv7k)" points="400,196,451,196,458,218.4883,797,218.4883,797,321,400,321,400,196" style="stroke:#000000;stroke-width:1.5;"/><line style="stroke:#000000;stroke-width:1.5;" x1="400" x2="458" y1="218.4883" y2="218.4883"/><text fill="#000000" font-family="sans-serif" font-size="14" font-weight="bold" lengthAdjust="spacing" textLength="45" x="404" y="211.5352">model</text><!--MD5=[7442f3b126ee602ae02566c1a49e158a]
cluster api--><polygon fill="#FFFFFF" filter="url(#f1fsesyofwuv7k)" points="40,49,68,49,75,71.4883,376,71.4883,376,308,40,308,40,49" style="stroke:#000000;stroke-width:1.5;"/><line style="stroke:#000000;stroke-width:1.5;" x1="40" x2="75" y1="71.4883" y2="71.4883"/><text fill="#000000" font-family="sans-serif" font-size="14" font-weight="bold" lengthAdjust="spacing" textLength="22" x="44" y="64.5352">api</text><!--MD5=[be6700cbb4ecacf17ba1942ef256a4d0]
cluster pydantic--><polygon fill="#FFFFFF" filter="url(#f1fsesyofwuv7k)" points="845,68.5,912,68.5,919,90.9883,971,90.9883,971,167.5,845,167.5,845,68.5" style="stroke:#000000;stroke-width:1.5;"/><line style="stroke:#000000;stroke-width:1.5;" x1="845" x2="919" y1="90.9883" y2="90.9883"/><text fill="#000000" font-family="sans-serif" font-size="14" font-weight="bold" lengthAdjust="spacing" textLength="61" x="849" y="84.0352">pydantic</text><!--MD5=[5e9a57a3377260e11f4c161d717e577e]
cluster builtins--><polygon fill="#FFFFFF" filter="url(#f1fsesyofwuv7k)" points="995,68.5,1057,68.5,1064,90.9883,1135,90.9883,1135,167.5,995,167.5,995,68.5" style="stroke:#000000;stroke-width:1.5;"/><line style="stroke:#000000;stroke-width:1.5;" x1="995" x2="1064" y1="90.9883" y2="90.9883"/><text fill="#000000" font-family="sans-serif" font-size="14" font-weight="bold" lengthAdjust="spacing" textLength="56" x="999" y="84.0352">builtins</text><!--MD5=[e5a4dac4c6309638964e98ee6f3d8961]
class application.model.Item--><rect codeLine="12" fill="#EBEBEB" filter="url(#f1fsesyofwuv7k)" height="73.9102" id="application.model.Item" style="stroke:#333333;stroke-width:1.5;" width="71" x="709.5" y="231"/><ellipse cx="730.8" cy="247" fill="#ADD1B2" rx="11" ry="11" style="stroke:#333333;stroke-width:1.0;"/><path d="M733.7731,252.6431 Q733.1921,252.9419 732.5529,253.0913 Q731.9138,253.2407 731.2082,253.2407 Q728.7014,253.2407 727.3815,251.5889 Q726.0617,249.937 726.0617,246.8159 Q726.0617,243.6865 727.3815,242.0347 Q728.7014,240.3828 731.2082,240.3828 Q731.9138,240.3828 732.5612,240.5322 Q733.2087,240.6816 733.7731,240.9805 L733.7731,243.7031 Q733.1423,243.1221 732.5488,242.8523 Q731.9553,242.5825 731.3244,242.5825 Q729.9797,242.5825 729.2949,243.6492 Q728.6101,244.7158 728.6101,246.8159 Q728.6101,248.9077 729.2949,249.9744 Q729.9797,251.041 731.3244,251.041 Q731.9553,251.041 732.5488,250.7712 Q733.1423,250.5015 733.7731,249.9204 Z " fill="#000000"/><text fill="#000000" font-family="sans-serif" font-size="12" lengthAdjust="spacing" textLength="25" x="746.2" y="251.5352">Item</text><line style="stroke:#333333;stroke-width:1.5;" x1="710.5" x2="779.5" y1="263" y2="263"/><ellipse cx="720.5" cy="274" rx="3" ry="3" style="stroke:#038048;stroke-width:1.0;fill:none;"/><text fill="#000000" font-family="sans-serif" font-size="11" lengthAdjust="spacing" textLength="45" x="729.5" y="277.6348">verb: str</text><ellipse cx="720.5" cy="286.9551" rx="3" ry="3" style="stroke:#038048;stroke-width:1.0;fill:none;"/><text fill="#000000" font-family="sans-serif" font-size="11" lengthAdjust="spacing" textLength="45" x="729.5" y="290.5898">path: str</text><line style="stroke:#333333;stroke-width:1.5;" x1="710.5" x2="779.5" y1="296.9102" y2="296.9102"/><!--MD5=[11b747870319a085bc745183e08c5f76]
class Storage--><rect codeLine="17" fill="#EBEBEB" filter="url(#f1fsesyofwuv7k)" height="60.9551" id="Storage" style="stroke:#333333;stroke-width:1.5;" width="258" x="416" y="237.5"/><ellipse cx="519.25" cy="253.5" fill="#ADD1B2" rx="11" ry="11" style="stroke:#333333;stroke-width:1.0;"/><path d="M522.2231,259.1431 Q521.6421,259.4419 521.0029,259.5913 Q520.3638,259.7407 519.6582,259.7407 Q517.1514,259.7407 515.8315,258.0889 Q514.5117,256.437 514.5117,253.3159 Q514.5117,250.1865 515.8315,248.5347 Q517.1514,246.8828 519.6582,246.8828 Q520.3638,246.8828 521.0112,247.0322 Q521.6587,247.1816 522.2231,247.4805 L522.2231,250.2031 Q521.5923,249.6221 520.9988,249.3523 Q520.4053,249.0825 519.7744,249.0825 Q518.4297,249.0825 517.7449,250.1492 Q517.0601,251.2158 517.0601,253.3159 Q517.0601,255.4077 517.7449,256.4744 Q518.4297,257.541 519.7744,257.541 Q520.4053,257.541 520.9988,257.2712 Q521.5923,257.0015 522.2231,256.4204 Z " fill="#000000"/><text fill="#000000" font-family="sans-serif" font-size="12" lengthAdjust="spacing" textLength="43" x="539.75" y="258.0352">Storage</text><line style="stroke:#333333;stroke-width:1.5;" x1="417" x2="673" y1="269.5" y2="269.5"/><ellipse cx="427" cy="280.5" rx="3" ry="3" style="stroke:#038048;stroke-width:1.0;fill:none;"/><text fill="#000000" font-family="sans-serif" font-size="11" lengthAdjust="spacing" textLength="232" x="436" y="284.1348">tree: typing.Dict[str, typing.Union[dict, str]]</text><line style="stroke:#333333;stroke-width:1.5;" x1="417" x2="673" y1="290.4551" y2="290.4551"/><!--MD5=[638134f9a21eb21b3f9235aaba2aa1d0]
class VerbExists--><rect codeLine="23" fill="#EBEBEB" filter="url(#f1fsesyofwuv7k)" height="48" id="VerbExists" style="stroke:#333333;stroke-width:1.5;" width="93" x="213.5" y="244"/><ellipse cx="228.5" cy="260" fill="#ADD1B2" rx="11" ry="11" style="stroke:#333333;stroke-width:1.0;"/><path d="M231.4731,265.6431 Q230.8921,265.9419 230.2529,266.0913 Q229.6138,266.2407 228.9082,266.2407 Q226.4014,266.2407 225.0815,264.5889 Q223.7617,262.937 223.7617,259.8159 Q223.7617,256.6865 225.0815,255.0347 Q226.4014,253.3828 228.9082,253.3828 Q229.6138,253.3828 230.2612,253.5322 Q230.9087,253.6816 231.4731,253.9805 L231.4731,256.7031 Q230.8423,256.1221 230.2488,255.8523 Q229.6553,255.5825 229.0244,255.5825 Q227.6797,255.5825 226.9949,256.6492 Q226.3101,257.7158 226.3101,259.8159 Q226.3101,261.9077 226.9949,262.9744 Q227.6797,264.041 229.0244,264.041 Q229.6553,264.041 230.2488,263.7712 Q230.8423,263.5015 231.4731,262.9204 Z " fill="#000000"/><text fill="#000000" font-family="sans-serif" font-size="12" lengthAdjust="spacing" textLength="61" x="242.5" y="264.5352">VerbExists</text><line style="stroke:#333333;stroke-width:1.5;" x1="214.5" x2="305.5" y1="276" y2="276"/><line style="stroke:#333333;stroke-width:1.5;" x1="214.5" x2="305.5" y1="284" y2="284"/><!--MD5=[68767c78be08caa96780c014af9fbeaa]
class API--><rect codeLine="24" fill="#EBEBEB" filter="url(#f1fsesyofwuv7k)" height="86.8652" id="API" style="stroke:#333333;stroke-width:1.5;" width="304" x="56" y="84"/><ellipse cx="194.75" cy="100" fill="#ADD1B2" rx="11" ry="11" style="stroke:#333333;stroke-width:1.0;"/><path d="M197.7231,105.6431 Q197.1421,105.9419 196.5029,106.0913 Q195.8638,106.2407 195.1582,106.2407 Q192.6514,106.2407 191.3315,104.5889 Q190.0117,102.937 190.0117,99.8159 Q190.0117,96.6865 191.3315,95.0347 Q192.6514,93.3828 195.1582,93.3828 Q195.8638,93.3828 196.5112,93.5322 Q197.1587,93.6816 197.7231,93.9805 L197.7231,96.7031 Q197.0923,96.1221 196.4988,95.8523 Q195.9053,95.5825 195.2744,95.5825 Q193.9297,95.5825 193.2449,96.6492 Q192.5601,97.7158 192.5601,99.8159 Q192.5601,101.9077 193.2449,102.9744 Q193.9297,104.041 195.2744,104.041 Q195.9053,104.041 196.4988,103.7712 Q197.0923,103.5015 197.7231,102.9204 Z " fill="#000000"/><text fill="#000000" font-family="sans-serif" font-size="12" lengthAdjust="spacing" textLength="18" x="215.25" y="104.5352">API</text><line style="stroke:#333333;stroke-width:1.5;" x1="57" x2="359" y1="116" y2="116"/><rect fill="none" height="6" style="stroke:#C82930;stroke-width:1.0;" width="6" x="64" y="124"/><text fill="#000000" font-family="sans-serif" font-size="11" lengthAdjust="spacing" textLength="186" x="76" y="130.6348">storage: application.model.Storage</text><line style="stroke:#333333;stroke-width:1.0;" x1="57" x2="359" y1="136.9551" y2="136.9551"/><ellipse cx="67" cy="147.9551" fill="#84BE84" rx="3" ry="3" style="stroke:#038048;stroke-width:1.0;"/><text fill="#000000" font-family="sans-serif" font-size="11" lengthAdjust="spacing" textLength="256" x="76" y="151.5898">add_item(item: application.model.Item) -&gt; None</text><ellipse cx="67" cy="160.9102" fill="#84BE84" rx="3" ry="3" style="stroke:#038048;stroke-width:1.0;"/><text fill="#000000" font-family="sans-serif" font-size="11" lengthAdjust="spacing" textLength="278" x="76" y="164.5449">get_tree() -&gt; typing.Dict[str, typing.Union[dict, str]]</text><!--MD5=[4aa002eae2f6a63b1c482e69f552afd8]
class pydantic.BaseModel--><rect fill="#EBEBEB" filter="url(#f1fsesyofwuv7k)" height="48" id="pydantic.BaseModel" style="stroke:#333333;stroke-width:1.5;" width="94" x="861" y="103.5"/><ellipse cx="876" cy="119.5" fill="#ADD1B2" rx="11" ry="11" style="stroke:#333333;stroke-width:1.0;"/><path d="M878.9731,125.1431 Q878.3921,125.4419 877.7529,125.5913 Q877.1138,125.7407 876.4082,125.7407 Q873.9014,125.7407 872.5815,124.0889 Q871.2617,122.437 871.2617,119.3159 Q871.2617,116.1865 872.5815,114.5347 Q873.9014,112.8828 876.4082,112.8828 Q877.1138,112.8828 877.7612,113.0322 Q878.4087,113.1816 878.9731,113.4805 L878.9731,116.2031 Q878.3423,115.6221 877.7488,115.3523 Q877.1553,115.0825 876.5244,115.0825 Q875.1797,115.0825 874.4949,116.1492 Q873.8101,117.2158 873.8101,119.3159 Q873.8101,121.4077 874.4949,122.4744 Q875.1797,123.541 876.5244,123.541 Q877.1553,123.541 877.7488,123.2712 Q878.3423,123.0015 878.9731,122.4204 Z " fill="#000000"/><text fill="#000000" font-family="sans-serif" font-size="12" lengthAdjust="spacing" textLength="62" x="890" y="124.0352">BaseModel</text><line style="stroke:#333333;stroke-width:1.5;" x1="862" x2="954" y1="135.5" y2="135.5"/><line style="stroke:#333333;stroke-width:1.5;" x1="862" x2="954" y1="143.5" y2="143.5"/><!--MD5=[26afaa6943c9e0f56a262483a2ac1d31]
class builtins.RuntimeError--><rect fill="#EBEBEB" filter="url(#f1fsesyofwuv7k)" height="48" id="builtins.RuntimeError" style="stroke:#333333;stroke-width:1.5;" width="108" x="1011" y="103.5"/><ellipse cx="1026" cy="119.5" fill="#ADD1B2" rx="11" ry="11" style="stroke:#333333;stroke-width:1.0;"/><path d="M1028.9731,125.1431 Q1028.3921,125.4419 1027.7529,125.5913 Q1027.1138,125.7407 1026.4082,125.7407 Q1023.9014,125.7407 1022.5815,124.0889 Q1021.2617,122.437 1021.2617,119.3159 Q1021.2617,116.1865 1022.5815,114.5347 Q1023.9014,112.8828 1026.4082,112.8828 Q1027.1138,112.8828 1027.7612,113.0322 Q1028.4087,113.1816 1028.9731,113.4805 L1028.9731,116.2031 Q1028.3423,115.6221 1027.7488,115.3523 Q1027.1553,115.0825 1026.5244,115.0825 Q1025.1797,115.0825 1024.4949,116.1492 Q1023.8101,117.2158 1023.8101,119.3159 Q1023.8101,121.4077 1024.4949,122.4744 Q1025.1797,123.541 1026.5244,123.541 Q1027.1553,123.541 1027.7488,123.2712 Q1028.3423,123.0015 1028.9731,122.4204 Z " fill="#000000"/><text fill="#000000" font-family="sans-serif" font-size="12" lengthAdjust="spacing" textLength="76" x="1040" y="124.0352">RuntimeError</text><line style="stroke:#333333;stroke-width:1.5;" x1="1012" x2="1118" y1="135.5" y2="135.5"/><line style="stroke:#333333;stroke-width:1.5;" x1="1012" x2="1118" y1="143.5" y2="143.5"/><!--MD5=[9672e70533a452fb58850976e42099e4]
reverse link pydantic.BaseModel to application.model.Item--><path d="M841,128 C841,128 756.83,128 756.83,128 C756.83,128 756.83,189.37 756.83,230.85 " fill="none" id="pydantic.BaseModel-backto-application.model.Item" style="stroke:#333333;stroke-width:1.0;"/><polygon fill="none" points="841,121,861,128,841,135,841,121" style="stroke:#333333;stroke-width:1.0;"/><!--MD5=[4f885de45fd75e5036016a247bd246f5]
reverse link builtins.RuntimeError to VerbExists--><path d="M1065,171.57 C1065,171.57 1065,201 1065,201 C1065,201 275.5,201 275.5,201 C275.5,201 275.5,224.62 275.5,243.81 " fill="none" id="builtins.RuntimeError-backto-VerbExists" style="stroke:#333333;stroke-width:1.0;"/><polygon fill="none" points="1058,171.57,1065,151.57,1072,171.57,1058,171.57" style="stroke:#333333;stroke-width:1.0;"/><!--MD5=[46fc6a66e6c0529b324ac89110b2a520]
link API to VerbExists--><path codeLine="31" d="M244.5,171.18 C244.5,195.19 244.5,224.05 244.5,243.98 " fill="none" id="API-VerbExists" style="stroke:#333333;stroke-width:1.0;"/><polygon fill="#000000" points="197.5,204.2353,200.4389,195.1902,194.5611,195.1902,197.5,204.2353" style="stroke:#000000;stroke-width:1.0;"/><text fill="#000000" font-family="sans-serif" font-size="13" lengthAdjust="spacing" textLength="37" x="206.5" y="204.1484">raises</text><!--MD5=[db103025b8750efa4c5c7359c0a903b9]
link API to Storage--><path codeLine="32" d="M333.25,183.18 C333.25,183.18 333.25,268 333.25,268 C333.25,268 402.72,268 402.72,268 " fill="none" id="API-Storage" style="stroke:#333333;stroke-width:1.0;"/><polygon fill="#333333" points="415.72,268,406.72,264,410.72,268,406.72,272,415.72,268" style="stroke:#333333;stroke-width:1.0;"/><line style="stroke:#333333;stroke-width:1.0;" x1="410.72" x2="402.72" y1="268" y2="268"/><polygon fill="#333333" points="333.25,171.18,329.25,177.18,333.25,183.18,337.25,177.18,333.25,171.18" style="stroke:#333333;stroke-width:1.0;"/><!--MD5=[a483a821dd6124a42400841be76daf88]
link API to application.model.Item--><path codeLine="33" d="M360.25,162 C515.33,162 733.17,162 733.17,162 C733.17,162 733.17,200.36 733.17,230.93 " fill="none" id="API-application.model.Item" style="stroke:#333333;stroke-width:1.0;"/><!--MD5=[7d5523ba91b6a91af782982b259e097f]
@startuml

skinparam class {
  BackgroundColor #ebebeb
  ArrowColor      #333
  BorderColor     #333
}

skinparam lineType ortho

package application {
  package model {
    class application.model.Item extends pydantic.BaseModel {
       + verb: str
       + path: str
    }

    class Storage {
       + tree: typing.Dict[str, typing.Union[dict, str]]
    }
  }

  package api {
    class VerbExists extends builtins.RuntimeError {}
    class API {
      - storage: application.model.Storage
      - - -
      + add_item(item: application.model.Item) -> None
      + get_tree() -> typing.Dict[str, typing.Union[dict, str]]
    }

    API - - VerbExists : "raises >"
    API *-> Storage
    API - - application.model.Item
  }
}

@enduml

PlantUML version 1.2022.0(Tue Jan 11 19:16:42 MSK 2022)
(GPL source distribution)
Java Runtime: OpenJDK Runtime Environment
JVM: OpenJDK 64-Bit Server VM
Default Encoding: UTF-8
Language: ru
Country: RU
--></g></svg>